<mxfile host="app.diagrams.net" agent="Mozilla/5.0 (Windows NT 10.0; Win64; x64) AppleWebKit/537.36 (KHTML, like Gecko) Chrome/136.0.0.0 Safari/537.36 Edg/136.0.0.0" version="27.0.9">
  <diagram name="Page-1" id="5NTIyeZJqegab4w2b1wb">
    <mxGraphModel dx="1034" dy="632" grid="1" gridSize="10" guides="1" tooltips="1" connect="1" arrows="1" fold="1" page="1" pageScale="1" pageWidth="850" pageHeight="1100" math="0" shadow="0">
      <root>
        <mxCell id="0" />
        <mxCell id="1" parent="0" />
        <mxCell id="jc8woskZaCKJYrU8-lHL-8" style="edgeStyle=orthogonalEdgeStyle;rounded=0;orthogonalLoop=1;jettySize=auto;html=1;exitX=0.5;exitY=1;exitDx=0;exitDy=0;entryX=0.5;entryY=0;entryDx=0;entryDy=0;" edge="1" parent="1" source="jc8woskZaCKJYrU8-lHL-5" target="jc8woskZaCKJYrU8-lHL-6">
          <mxGeometry relative="1" as="geometry" />
        </mxCell>
        <mxCell id="jc8woskZaCKJYrU8-lHL-5" value="Nhận FRS&lt;div&gt;VF3: ngocnm28&lt;/div&gt;&lt;div&gt;VF2:&amp;nbsp;&lt;span style=&quot;background-color: transparent; color: light-dark(rgb(0, 0, 0), rgb(255, 255, 255));&quot;&gt;dungnv107&lt;/span&gt;&lt;/div&gt;&lt;div&gt;&lt;span style=&quot;background-color: transparent; color: light-dark(rgb(0, 0, 0), rgb(255, 255, 255));&quot;&gt;Tích hợp:&amp;nbsp;&lt;/span&gt;&lt;span style=&quot;background-color: transparent; color: light-dark(rgb(0, 0, 0), rgb(255, 255, 255));&quot;&gt;Tuandc3&lt;/span&gt;&lt;/div&gt;" style="rounded=0;whiteSpace=wrap;html=1;" vertex="1" parent="1">
          <mxGeometry x="310" y="20" width="120" height="70" as="geometry" />
        </mxCell>
        <mxCell id="jc8woskZaCKJYrU8-lHL-9" style="edgeStyle=orthogonalEdgeStyle;rounded=0;orthogonalLoop=1;jettySize=auto;html=1;exitX=0.5;exitY=1;exitDx=0;exitDy=0;entryX=0.5;entryY=0;entryDx=0;entryDy=0;" edge="1" parent="1" source="jc8woskZaCKJYrU8-lHL-6" target="jc8woskZaCKJYrU8-lHL-7">
          <mxGeometry relative="1" as="geometry" />
        </mxCell>
        <mxCell id="jc8woskZaCKJYrU8-lHL-6" value="Chuẩn bị xe" style="rounded=0;whiteSpace=wrap;html=1;" vertex="1" parent="1">
          <mxGeometry x="310" y="110" width="120" height="60" as="geometry" />
        </mxCell>
        <mxCell id="jc8woskZaCKJYrU8-lHL-36" style="edgeStyle=orthogonalEdgeStyle;rounded=0;orthogonalLoop=1;jettySize=auto;html=1;exitX=0.5;exitY=1;exitDx=0;exitDy=0;entryX=0.5;entryY=0;entryDx=0;entryDy=0;" edge="1" parent="1" source="jc8woskZaCKJYrU8-lHL-7" target="jc8woskZaCKJYrU8-lHL-10">
          <mxGeometry relative="1" as="geometry" />
        </mxCell>
        <mxCell id="jc8woskZaCKJYrU8-lHL-7" value="Check DTC, DID, BOM" style="rounded=0;whiteSpace=wrap;html=1;" vertex="1" parent="1">
          <mxGeometry x="310" y="190" width="120" height="60" as="geometry" />
        </mxCell>
        <mxCell id="jc8woskZaCKJYrU8-lHL-14" style="edgeStyle=orthogonalEdgeStyle;rounded=0;orthogonalLoop=1;jettySize=auto;html=1;exitX=0.5;exitY=1;exitDx=0;exitDy=0;" edge="1" parent="1" source="jc8woskZaCKJYrU8-lHL-10" target="jc8woskZaCKJYrU8-lHL-11">
          <mxGeometry relative="1" as="geometry" />
        </mxCell>
        <mxCell id="jc8woskZaCKJYrU8-lHL-10" value="Flash SW cho ECU" style="rounded=0;whiteSpace=wrap;html=1;" vertex="1" parent="1">
          <mxGeometry x="310" y="270" width="120" height="60" as="geometry" />
        </mxCell>
        <mxCell id="jc8woskZaCKJYrU8-lHL-23" style="edgeStyle=orthogonalEdgeStyle;rounded=0;orthogonalLoop=1;jettySize=auto;html=1;exitX=1;exitY=0.5;exitDx=0;exitDy=0;entryX=0;entryY=0.5;entryDx=0;entryDy=0;" edge="1" parent="1" source="jc8woskZaCKJYrU8-lHL-11" target="jc8woskZaCKJYrU8-lHL-22">
          <mxGeometry relative="1" as="geometry" />
        </mxCell>
        <mxCell id="jc8woskZaCKJYrU8-lHL-37" style="edgeStyle=orthogonalEdgeStyle;rounded=0;orthogonalLoop=1;jettySize=auto;html=1;exitX=0.5;exitY=1;exitDx=0;exitDy=0;entryX=0.5;entryY=0;entryDx=0;entryDy=0;" edge="1" parent="1" source="jc8woskZaCKJYrU8-lHL-11" target="jc8woskZaCKJYrU8-lHL-34">
          <mxGeometry relative="1" as="geometry" />
        </mxCell>
        <mxCell id="jc8woskZaCKJYrU8-lHL-11" value="Lỗi" style="rhombus;whiteSpace=wrap;html=1;" vertex="1" parent="1">
          <mxGeometry x="300" y="360" width="140" height="60" as="geometry" />
        </mxCell>
        <mxCell id="jc8woskZaCKJYrU8-lHL-27" style="edgeStyle=orthogonalEdgeStyle;rounded=0;orthogonalLoop=1;jettySize=auto;html=1;exitX=1;exitY=0.5;exitDx=0;exitDy=0;entryX=0;entryY=0.5;entryDx=0;entryDy=0;" edge="1" parent="1" source="jc8woskZaCKJYrU8-lHL-22" target="jc8woskZaCKJYrU8-lHL-26">
          <mxGeometry relative="1" as="geometry" />
        </mxCell>
        <mxCell id="jc8woskZaCKJYrU8-lHL-22" value="Check DTC after flash" style="rounded=0;whiteSpace=wrap;html=1;" vertex="1" parent="1">
          <mxGeometry x="500" y="360" width="120" height="60" as="geometry" />
        </mxCell>
        <mxCell id="jc8woskZaCKJYrU8-lHL-24" value="Có lỗi" style="text;html=1;align=center;verticalAlign=middle;resizable=0;points=[];autosize=1;strokeColor=none;fillColor=none;" vertex="1" parent="1">
          <mxGeometry x="440" y="360" width="50" height="30" as="geometry" />
        </mxCell>
        <mxCell id="jc8woskZaCKJYrU8-lHL-29" style="edgeStyle=orthogonalEdgeStyle;rounded=0;orthogonalLoop=1;jettySize=auto;html=1;exitX=0.5;exitY=1;exitDx=0;exitDy=0;entryX=0.5;entryY=0;entryDx=0;entryDy=0;" edge="1" parent="1" source="jc8woskZaCKJYrU8-lHL-26" target="jc8woskZaCKJYrU8-lHL-28">
          <mxGeometry relative="1" as="geometry" />
        </mxCell>
        <mxCell id="jc8woskZaCKJYrU8-lHL-30" style="edgeStyle=orthogonalEdgeStyle;rounded=0;orthogonalLoop=1;jettySize=auto;html=1;exitX=0.5;exitY=0;exitDx=0;exitDy=0;entryX=1;entryY=0.5;entryDx=0;entryDy=0;" edge="1" parent="1" source="jc8woskZaCKJYrU8-lHL-26" target="jc8woskZaCKJYrU8-lHL-10">
          <mxGeometry relative="1" as="geometry" />
        </mxCell>
        <mxCell id="jc8woskZaCKJYrU8-lHL-26" value="Lỗi SW?" style="rhombus;whiteSpace=wrap;html=1;" vertex="1" parent="1">
          <mxGeometry x="640" y="360" width="140" height="60" as="geometry" />
        </mxCell>
        <mxCell id="jc8woskZaCKJYrU8-lHL-33" style="edgeStyle=orthogonalEdgeStyle;rounded=0;orthogonalLoop=1;jettySize=auto;html=1;exitX=0.5;exitY=1;exitDx=0;exitDy=0;entryX=0.5;entryY=0;entryDx=0;entryDy=0;" edge="1" parent="1" source="jc8woskZaCKJYrU8-lHL-28" target="jc8woskZaCKJYrU8-lHL-32">
          <mxGeometry relative="1" as="geometry" />
        </mxCell>
        <mxCell id="jc8woskZaCKJYrU8-lHL-28" value="Làm việc với team quản lí FRS, tích hợp" style="rounded=0;whiteSpace=wrap;html=1;" vertex="1" parent="1">
          <mxGeometry x="650" y="450" width="120" height="60" as="geometry" />
        </mxCell>
        <mxCell id="jc8woskZaCKJYrU8-lHL-31" value="Lỗi Flash" style="text;html=1;align=center;verticalAlign=middle;resizable=0;points=[];autosize=1;strokeColor=none;fillColor=none;" vertex="1" parent="1">
          <mxGeometry x="580" y="270" width="70" height="30" as="geometry" />
        </mxCell>
        <mxCell id="jc8woskZaCKJYrU8-lHL-32" value="Raise issue" style="rounded=0;whiteSpace=wrap;html=1;" vertex="1" parent="1">
          <mxGeometry x="650" y="540" width="120" height="60" as="geometry" />
        </mxCell>
        <mxCell id="jc8woskZaCKJYrU8-lHL-40" style="edgeStyle=orthogonalEdgeStyle;rounded=0;orthogonalLoop=1;jettySize=auto;html=1;exitX=0.5;exitY=1;exitDx=0;exitDy=0;entryX=0.5;entryY=0;entryDx=0;entryDy=0;" edge="1" parent="1" source="jc8woskZaCKJYrU8-lHL-34" target="jc8woskZaCKJYrU8-lHL-39">
          <mxGeometry relative="1" as="geometry" />
        </mxCell>
        <mxCell id="jc8woskZaCKJYrU8-lHL-34" value="Đẩy xe đã flash cho VCA" style="rounded=0;whiteSpace=wrap;html=1;" vertex="1" parent="1">
          <mxGeometry x="310" y="450" width="120" height="60" as="geometry" />
        </mxCell>
        <mxCell id="jc8woskZaCKJYrU8-lHL-35" value="Lỗi SW" style="text;html=1;align=center;verticalAlign=middle;resizable=0;points=[];autosize=1;strokeColor=none;fillColor=none;" vertex="1" parent="1">
          <mxGeometry x="710" y="420" width="60" height="30" as="geometry" />
        </mxCell>
        <mxCell id="jc8woskZaCKJYrU8-lHL-38" value="Không" style="text;html=1;align=center;verticalAlign=middle;resizable=0;points=[];autosize=1;strokeColor=none;fillColor=none;" vertex="1" parent="1">
          <mxGeometry x="365" y="410" width="60" height="30" as="geometry" />
        </mxCell>
        <mxCell id="jc8woskZaCKJYrU8-lHL-39" value="Tổng hợp và đánh giá theo&amp;nbsp;&lt;span style=&quot;font-family: -apple-system, BlinkMacSystemFont, &amp;quot;Segoe UI&amp;quot;, Roboto, &amp;quot;Helvetica Neue&amp;quot;, Arial, &amp;quot;Noto Sans&amp;quot;, sans-serif, &amp;quot;Apple Color Emoji&amp;quot;, &amp;quot;Segoe UI Emoji&amp;quot;, &amp;quot;Segoe UI Symbol&amp;quot;, &amp;quot;Noto Color Emoji&amp;quot;; font-size: 14px; font-weight: 600; text-align: start; background-color: rgb(255, 255, 255);&quot;&gt;VF_SX_CL18&lt;/span&gt;&lt;span style=&quot;color: rgba(0, 0, 0, 0); font-family: monospace; font-size: 0px; text-align: start; text-wrap-mode: nowrap;&quot;&gt;%3CmxGraphModel%3E%3Croot%3E%3CmxCell%20id%3D%220%22%2F%3E%3CmxCell%20id%3D%221%22%20parent%3D%220%22%2F%3E%3CmxCell%20id%3D%222%22%20value%3D%22%C4%90%E1%BA%A9y%20xe%20%C4%91%C3%A3%20flash%20cho%20VCA%22%20style%3D%22rounded%3D0%3BwhiteSpace%3Dwrap%3Bhtml%3D1%3B%22%20vertex%3D%221%22%20parent%3D%221%22%3E%3CmxGeometry%20x%3D%22310%22%20y%3D%22450%22%20width%3D%22120%22%20height%3D%2260%22%20as%3D%22geometry%22%2F%3E%3C%2FmxCell%3E%3C%2Froot%3E%3C%2FmxGraphModel%3E&lt;/span&gt;" style="rounded=0;whiteSpace=wrap;html=1;" vertex="1" parent="1">
          <mxGeometry x="310" y="540" width="120" height="60" as="geometry" />
        </mxCell>
      </root>
    </mxGraphModel>
  </diagram>
</mxfile>
